<svg xmlns="http://www.w3.org/2000/svg" viewBox="0 0 128 128">
  <defs>
    <linearGradient id="bg" x1="0%" y1="0%" x2="100%" y2="100%">
      <stop offset="0%" style="stop-color:#c4ff00"/>
      <stop offset="100%" style="stop-color:#a8e600"/>
    </linearGradient>
  </defs>
  <!-- Rounded square background -->
  <rect x="8" y="8" width="112" height="112" rx="24" fill="url(#bg)"/>
  <!-- Letter B -->
  <path d="M40 32h28c12 0 20 8 20 18 0 7-4 12-10 15 8 2 14 9 14 18 0 12-10 21-24 21H40V32zm28 28c6 0 10-4 10-9s-4-9-10-9H52v18h16zm2 32c8 0 12-5 12-11s-4-11-12-11H52v22h18z" fill="#07070a"/>
</svg>
